  0
SECTION
  2
HEADER
  9
$ACADVER
  1
AC1009
  9
$EXTMIN
 10
0.0
 20
0.0
 30
0.0
  9
$EXTMAX
 10
1000.0
 20
1000.0
 30
0.0
  9
$FILLMODE
 70
 0
  9
$SPLFRAME
 70
 1
  0
ENDSEC
  0
SECTION
  2
TABLES
  0
TABLE
  2
LAYER
 70
1
  0
LAYER
  2
0
 70
     0
 62
     7
  6
CONTINUOUS
  0
ENDTAB
  0
ENDSEC
  0
SECTION
  2
ENTITIES
  0
LINE
  8
0
 62
     0
 10
0.0950846
 20
109.619
 30
0.0
 11
271.895
 21
109.619
 31
0.0
  0
LINE
  8
0
 62
     0
 10
271.895
 20
109.619
 30
0.0
 11
271.895
 21
0.21773
 31
0.0
  0
LINE
  8
0
 62
     0
 10
271.895
 20
0.21773
 30
0.0
 11
0.0950846
 21
0.21773
 31
0.0
  0
LINE
  8
0
 62
     0
 10
0.0950846
 20
0.21773
 30
0.0
 11
0.0950846
 21
109.619
 31
0.0
  0
LINE
  8
0
 62
     0
 10
243.37
 20
27.744
 30
0.0
 11
257.219
 21
27.744
 31
0.0
  0
LINE
  8
0
 62
     0
 10
257.219
 20
27.744
 30
0.0
 11
257.219
 21
13.8948
 31
0.0
  0
LINE
  8
0
 62
     0
 10
257.219
 20
13.8948
 30
0.0
 11
243.37
 21
13.8948
 31
0.0
  0
LINE
  8
0
 62
     0
 10
243.37
 20
13.8948
 30
0.0
 11
243.37
 21
27.744
 31
0.0
  0
LINE
  8
0
 62
     0
 10
224.32
 20
27.744
 30
0.0
 11
238.169
 21
27.744
 31
0.0
  0
LINE
  8
0
 62
     0
 10
238.169
 20
27.744
 30
0.0
 11
238.169
 21
13.8948
 31
0.0
  0
LINE
  8
0
 62
     0
 10
238.169
 20
13.8948
 30
0.0
 11
224.32
 21
13.8948
 31
0.0
  0
LINE
  8
0
 62
     0
 10
224.32
 20
13.8948
 30
0.0
 11
224.32
 21
27.744
 31
0.0
  0
LINE
  8
0
 62
     0
 10
205.27
 20
27.744
 30
0.0
 11
219.119
 21
27.744
 31
0.0
  0
LINE
  8
0
 62
     0
 10
219.119
 20
27.744
 30
0.0
 11
219.119
 21
13.8948
 31
0.0
  0
LINE
  8
0
 62
     0
 10
219.119
 20
13.8948
 30
0.0
 11
205.27
 21
13.8948
 31
0.0
  0
LINE
  8
0
 62
     0
 10
205.27
 20
13.8948
 30
0.0
 11
205.27
 21
27.744
 31
0.0
  0
LINE
  8
0
 62
     0
 10
186.22
 20
27.744
 30
0.0
 11
200.069
 21
27.744
 31
0.0
  0
LINE
  8
0
 62
     0
 10
200.069
 20
27.744
 30
0.0
 11
200.069
 21
13.8948
 31
0.0
  0
LINE
  8
0
 62
     0
 10
200.069
 20
13.8948
 30
0.0
 11
186.22
 21
13.8948
 31
0.0
  0
LINE
  8
0
 62
     0
 10
186.22
 20
13.8948
 30
0.0
 11
186.22
 21
27.744
 31
0.0
  0
LINE
  8
0
 62
     0
 10
167.17
 20
27.744
 30
0.0
 11
181.019
 21
27.744
 31
0.0
  0
LINE
  8
0
 62
     0
 10
181.019
 20
27.744
 30
0.0
 11
181.019
 21
13.8948
 31
0.0
  0
LINE
  8
0
 62
     0
 10
181.019
 20
13.8948
 30
0.0
 11
167.17
 21
13.8948
 31
0.0
  0
LINE
  8
0
 62
     0
 10
167.17
 20
13.8948
 30
0.0
 11
167.17
 21
27.744
 31
0.0
  0
LINE
  8
0
 62
     0
 10
148.12
 20
27.744
 30
0.0
 11
161.969
 21
27.744
 31
0.0
  0
LINE
  8
0
 62
     0
 10
161.969
 20
27.744
 30
0.0
 11
161.969
 21
13.8948
 31
0.0
  0
LINE
  8
0
 62
     0
 10
161.969
 20
13.8948
 30
0.0
 11
148.12
 21
13.8948
 31
0.0
  0
LINE
  8
0
 62
     0
 10
148.12
 20
13.8948
 30
0.0
 11
148.12
 21
27.744
 31
0.0
  0
LINE
  8
0
 62
     0
 10
129.07
 20
27.744
 30
0.0
 11
142.919
 21
27.744
 31
0.0
  0
LINE
  8
0
 62
     0
 10
142.919
 20
27.744
 30
0.0
 11
142.919
 21
13.8948
 31
0.0
  0
LINE
  8
0
 62
     0
 10
142.919
 20
13.8948
 30
0.0
 11
129.07
 21
13.8948
 31
0.0
  0
LINE
  8
0
 62
     0
 10
129.07
 20
13.8948
 30
0.0
 11
129.07
 21
27.744
 31
0.0
  0
LINE
  8
0
 62
     0
 10
110.02
 20
27.744
 30
0.0
 11
123.869
 21
27.744
 31
0.0
  0
LINE
  8
0
 62
     0
 10
123.869
 20
27.744
 30
0.0
 11
123.869
 21
13.8948
 31
0.0
  0
LINE
  8
0
 62
     0
 10
123.869
 20
13.8948
 30
0.0
 11
110.02
 21
13.8948
 31
0.0
  0
LINE
  8
0
 62
     0
 10
110.02
 20
13.8948
 30
0.0
 11
110.02
 21
27.744
 31
0.0
  0
LINE
  8
0
 62
     0
 10
90.9697
 20
27.744
 30
0.0
 11
104.819
 21
27.744
 31
0.0
  0
LINE
  8
0
 62
     0
 10
104.819
 20
27.744
 30
0.0
 11
104.819
 21
13.8948
 31
0.0
  0
LINE
  8
0
 62
     0
 10
104.819
 20
13.8948
 30
0.0
 11
90.9697
 21
13.8948
 31
0.0
  0
LINE
  8
0
 62
     0
 10
90.9697
 20
13.8948
 30
0.0
 11
90.9697
 21
27.744
 31
0.0
  0
LINE
  8
0
 62
     0
 10
71.9197
 20
27.744
 30
0.0
 11
85.7691
 21
27.744
 31
0.0
  0
LINE
  8
0
 62
     0
 10
85.7691
 20
27.744
 30
0.0
 11
85.7691
 21
13.8948
 31
0.0
  0
LINE
  8
0
 62
     0
 10
85.7691
 20
13.8948
 30
0.0
 11
71.9197
 21
13.8948
 31
0.0
  0
LINE
  8
0
 62
     0
 10
71.9197
 20
13.8948
 30
0.0
 11
71.9197
 21
27.744
 31
0.0
  0
LINE
  8
0
 62
     0
 10
52.8697
 20
27.744
 30
0.0
 11
66.7191
 21
27.744
 31
0.0
  0
LINE
  8
0
 62
     0
 10
66.7191
 20
27.744
 30
0.0
 11
66.7191
 21
13.8948
 31
0.0
  0
LINE
  8
0
 62
     0
 10
66.7191
 20
13.8948
 30
0.0
 11
52.8697
 21
13.8948
 31
0.0
  0
LINE
  8
0
 62
     0
 10
52.8697
 20
13.8948
 30
0.0
 11
52.8697
 21
27.744
 31
0.0
  0
LINE
  8
0
 62
     0
 10
33.8198
 20
27.744
 30
0.0
 11
47.6691
 21
27.744
 31
0.0
  0
LINE
  8
0
 62
     0
 10
47.6691
 20
27.744
 30
0.0
 11
47.6691
 21
13.8948
 31
0.0
  0
LINE
  8
0
 62
     0
 10
47.6691
 20
13.8948
 30
0.0
 11
33.8198
 21
13.8948
 31
0.0
  0
LINE
  8
0
 62
     0
 10
33.8198
 20
13.8948
 30
0.0
 11
33.8198
 21
27.744
 31
0.0
  0
LINE
  8
0
 62
     0
 10
14.7698
 20
27.744
 30
0.0
 11
28.6191
 21
27.744
 31
0.0
  0
LINE
  8
0
 62
     0
 10
28.6191
 20
27.744
 30
0.0
 11
28.6191
 21
13.8948
 31
0.0
  0
LINE
  8
0
 62
     0
 10
28.6191
 20
13.8948
 30
0.0
 11
14.7698
 21
13.8948
 31
0.0
  0
LINE
  8
0
 62
     0
 10
14.7698
 20
13.8948
 30
0.0
 11
14.7698
 21
27.744
 31
0.0
  0
LINE
  8
0
 62
     0
 10
243.37
 20
46.7942
 30
0.0
 11
257.219
 21
46.7942
 31
0.0
  0
LINE
  8
0
 62
     0
 10
257.219
 20
46.7942
 30
0.0
 11
257.219
 21
32.9448
 31
0.0
  0
LINE
  8
0
 62
     0
 10
257.219
 20
32.9448
 30
0.0
 11
243.37
 21
32.9448
 31
0.0
  0
LINE
  8
0
 62
     0
 10
243.37
 20
32.9448
 30
0.0
 11
243.37
 21
46.7942
 31
0.0
  0
LINE
  8
0
 62
     0
 10
224.32
 20
46.7942
 30
0.0
 11
238.169
 21
46.7942
 31
0.0
  0
LINE
  8
0
 62
     0
 10
238.169
 20
46.7942
 30
0.0
 11
238.169
 21
32.9448
 31
0.0
  0
LINE
  8
0
 62
     0
 10
238.169
 20
32.9448
 30
0.0
 11
224.32
 21
32.9448
 31
0.0
  0
LINE
  8
0
 62
     0
 10
224.32
 20
32.9448
 30
0.0
 11
224.32
 21
46.7942
 31
0.0
  0
LINE
  8
0
 62
     0
 10
205.27
 20
46.7942
 30
0.0
 11
219.119
 21
46.7942
 31
0.0
  0
LINE
  8
0
 62
     0
 10
219.119
 20
46.7942
 30
0.0
 11
219.119
 21
32.9448
 31
0.0
  0
LINE
  8
0
 62
     0
 10
219.119
 20
32.9448
 30
0.0
 11
205.27
 21
32.9448
 31
0.0
  0
LINE
  8
0
 62
     0
 10
205.27
 20
32.9448
 30
0.0
 11
205.27
 21
46.7942
 31
0.0
  0
LINE
  8
0
 62
     0
 10
186.22
 20
46.7942
 30
0.0
 11
200.069
 21
46.7942
 31
0.0
  0
LINE
  8
0
 62
     0
 10
200.069
 20
46.7942
 30
0.0
 11
200.069
 21
32.9448
 31
0.0
  0
LINE
  8
0
 62
     0
 10
200.069
 20
32.9448
 30
0.0
 11
186.22
 21
32.9448
 31
0.0
  0
LINE
  8
0
 62
     0
 10
186.22
 20
32.9448
 30
0.0
 11
186.22
 21
46.7942
 31
0.0
  0
LINE
  8
0
 62
     0
 10
167.17
 20
46.7942
 30
0.0
 11
181.019
 21
46.7942
 31
0.0
  0
LINE
  8
0
 62
     0
 10
181.019
 20
46.7942
 30
0.0
 11
181.019
 21
32.9448
 31
0.0
  0
LINE
  8
0
 62
     0
 10
181.019
 20
32.9448
 30
0.0
 11
167.17
 21
32.9448
 31
0.0
  0
LINE
  8
0
 62
     0
 10
167.17
 20
32.9448
 30
0.0
 11
167.17
 21
46.7942
 31
0.0
  0
LINE
  8
0
 62
     0
 10
148.12
 20
46.7942
 30
0.0
 11
161.969
 21
46.7942
 31
0.0
  0
LINE
  8
0
 62
     0
 10
161.969
 20
46.7942
 30
0.0
 11
161.969
 21
32.9448
 31
0.0
  0
LINE
  8
0
 62
     0
 10
161.969
 20
32.9448
 30
0.0
 11
148.12
 21
32.9448
 31
0.0
  0
LINE
  8
0
 62
     0
 10
148.12
 20
32.9448
 30
0.0
 11
148.12
 21
46.7942
 31
0.0
  0
LINE
  8
0
 62
     0
 10
129.07
 20
46.7942
 30
0.0
 11
142.919
 21
46.7942
 31
0.0
  0
LINE
  8
0
 62
     0
 10
142.919
 20
46.7942
 30
0.0
 11
142.919
 21
32.9448
 31
0.0
  0
LINE
  8
0
 62
     0
 10
142.919
 20
32.9448
 30
0.0
 11
129.07
 21
32.9448
 31
0.0
  0
LINE
  8
0
 62
     0
 10
129.07
 20
32.9448
 30
0.0
 11
129.07
 21
46.7942
 31
0.0
  0
LINE
  8
0
 62
     0
 10
110.02
 20
46.7942
 30
0.0
 11
123.869
 21
46.7942
 31
0.0
  0
LINE
  8
0
 62
     0
 10
123.869
 20
46.7942
 30
0.0
 11
123.869
 21
32.9448
 31
0.0
  0
LINE
  8
0
 62
     0
 10
123.869
 20
32.9448
 30
0.0
 11
110.02
 21
32.9448
 31
0.0
  0
LINE
  8
0
 62
     0
 10
110.02
 20
32.9448
 30
0.0
 11
110.02
 21
46.7942
 31
0.0
  0
LINE
  8
0
 62
     0
 10
90.9697
 20
46.7942
 30
0.0
 11
104.819
 21
46.7942
 31
0.0
  0
LINE
  8
0
 62
     0
 10
104.819
 20
46.7942
 30
0.0
 11
104.819
 21
32.9448
 31
0.0
  0
LINE
  8
0
 62
     0
 10
104.819
 20
32.9448
 30
0.0
 11
90.9697
 21
32.9448
 31
0.0
  0
LINE
  8
0
 62
     0
 10
90.9697
 20
32.9448
 30
0.0
 11
90.9697
 21
46.7942
 31
0.0
  0
LINE
  8
0
 62
     0
 10
71.9197
 20
46.7942
 30
0.0
 11
85.7691
 21
46.7942
 31
0.0
  0
LINE
  8
0
 62
     0
 10
85.7691
 20
46.7942
 30
0.0
 11
85.7691
 21
32.9448
 31
0.0
  0
LINE
  8
0
 62
     0
 10
85.7691
 20
32.9448
 30
0.0
 11
71.9197
 21
32.9448
 31
0.0
  0
LINE
  8
0
 62
     0
 10
71.9197
 20
32.9448
 30
0.0
 11
71.9197
 21
46.7942
 31
0.0
  0
LINE
  8
0
 62
     0
 10
52.8697
 20
46.7942
 30
0.0
 11
66.7191
 21
46.7942
 31
0.0
  0
LINE
  8
0
 62
     0
 10
66.7191
 20
46.7942
 30
0.0
 11
66.7191
 21
32.9448
 31
0.0
  0
LINE
  8
0
 62
     0
 10
66.7191
 20
32.9448
 30
0.0
 11
52.8697
 21
32.9448
 31
0.0
  0
LINE
  8
0
 62
     0
 10
52.8697
 20
32.9448
 30
0.0
 11
52.8697
 21
46.7942
 31
0.0
  0
LINE
  8
0
 62
     0
 10
33.8198
 20
46.7942
 30
0.0
 11
47.6691
 21
46.7942
 31
0.0
  0
LINE
  8
0
 62
     0
 10
47.6691
 20
46.7942
 30
0.0
 11
47.6691
 21
32.9448
 31
0.0
  0
LINE
  8
0
 62
     0
 10
47.6691
 20
32.9448
 30
0.0
 11
33.8198
 21
32.9448
 31
0.0
  0
LINE
  8
0
 62
     0
 10
33.8198
 20
32.9448
 30
0.0
 11
33.8198
 21
46.7942
 31
0.0
  0
LINE
  8
0
 62
     0
 10
14.7698
 20
46.7942
 30
0.0
 11
28.6191
 21
46.7942
 31
0.0
  0
LINE
  8
0
 62
     0
 10
28.6191
 20
46.7942
 30
0.0
 11
28.6191
 21
32.9448
 31
0.0
  0
LINE
  8
0
 62
     0
 10
28.6191
 20
32.9448
 30
0.0
 11
14.7698
 21
32.9448
 31
0.0
  0
LINE
  8
0
 62
     0
 10
14.7698
 20
32.9448
 30
0.0
 11
14.7698
 21
46.7942
 31
0.0
  0
LINE
  8
0
 62
     0
 10
243.37
 20
65.8442
 30
0.0
 11
257.219
 21
65.8442
 31
0.0
  0
LINE
  8
0
 62
     0
 10
257.219
 20
65.8442
 30
0.0
 11
257.219
 21
51.9949
 31
0.0
  0
LINE
  8
0
 62
     0
 10
257.219
 20
51.9949
 30
0.0
 11
243.37
 21
51.9949
 31
0.0
  0
LINE
  8
0
 62
     0
 10
243.37
 20
51.9949
 30
0.0
 11
243.37
 21
65.8442
 31
0.0
  0
LINE
  8
0
 62
     0
 10
224.32
 20
65.8442
 30
0.0
 11
238.169
 21
65.8442
 31
0.0
  0
LINE
  8
0
 62
     0
 10
238.169
 20
65.8442
 30
0.0
 11
238.169
 21
51.9949
 31
0.0
  0
LINE
  8
0
 62
     0
 10
238.169
 20
51.9949
 30
0.0
 11
224.32
 21
51.9949
 31
0.0
  0
LINE
  8
0
 62
     0
 10
224.32
 20
51.9949
 30
0.0
 11
224.32
 21
65.8442
 31
0.0
  0
LINE
  8
0
 62
     0
 10
205.27
 20
65.8442
 30
0.0
 11
219.119
 21
65.8442
 31
0.0
  0
LINE
  8
0
 62
     0
 10
219.119
 20
65.8442
 30
0.0
 11
219.119
 21
51.9949
 31
0.0
  0
LINE
  8
0
 62
     0
 10
219.119
 20
51.9949
 30
0.0
 11
205.27
 21
51.9949
 31
0.0
  0
LINE
  8
0
 62
     0
 10
205.27
 20
51.9949
 30
0.0
 11
205.27
 21
65.8442
 31
0.0
  0
LINE
  8
0
 62
     0
 10
186.22
 20
65.8442
 30
0.0
 11
200.069
 21
65.8442
 31
0.0
  0
LINE
  8
0
 62
     0
 10
200.069
 20
65.8442
 30
0.0
 11
200.069
 21
51.9949
 31
0.0
  0
LINE
  8
0
 62
     0
 10
200.069
 20
51.9949
 30
0.0
 11
186.22
 21
51.9949
 31
0.0
  0
LINE
  8
0
 62
     0
 10
186.22
 20
51.9949
 30
0.0
 11
186.22
 21
65.8442
 31
0.0
  0
LINE
  8
0
 62
     0
 10
167.17
 20
65.8442
 30
0.0
 11
181.019
 21
65.8442
 31
0.0
  0
LINE
  8
0
 62
     0
 10
181.019
 20
65.8442
 30
0.0
 11
181.019
 21
51.9949
 31
0.0
  0
LINE
  8
0
 62
     0
 10
181.019
 20
51.9949
 30
0.0
 11
167.17
 21
51.9949
 31
0.0
  0
LINE
  8
0
 62
     0
 10
167.17
 20
51.9949
 30
0.0
 11
167.17
 21
65.8442
 31
0.0
  0
LINE
  8
0
 62
     0
 10
148.12
 20
65.8442
 30
0.0
 11
161.969
 21
65.8442
 31
0.0
  0
LINE
  8
0
 62
     0
 10
161.969
 20
65.8442
 30
0.0
 11
161.969
 21
51.9949
 31
0.0
  0
LINE
  8
0
 62
     0
 10
161.969
 20
51.9949
 30
0.0
 11
148.12
 21
51.9949
 31
0.0
  0
LINE
  8
0
 62
     0
 10
148.12
 20
51.9949
 30
0.0
 11
148.12
 21
65.8442
 31
0.0
  0
LINE
  8
0
 62
     0
 10
129.07
 20
65.8442
 30
0.0
 11
142.919
 21
65.8442
 31
0.0
  0
LINE
  8
0
 62
     0
 10
142.919
 20
65.8442
 30
0.0
 11
142.919
 21
51.9949
 31
0.0
  0
LINE
  8
0
 62
     0
 10
142.919
 20
51.9949
 30
0.0
 11
129.07
 21
51.9949
 31
0.0
  0
LINE
  8
0
 62
     0
 10
129.07
 20
51.9949
 30
0.0
 11
129.07
 21
65.8442
 31
0.0
  0
LINE
  8
0
 62
     0
 10
110.02
 20
65.8442
 30
0.0
 11
123.869
 21
65.8442
 31
0.0
  0
LINE
  8
0
 62
     0
 10
123.869
 20
65.8442
 30
0.0
 11
123.869
 21
51.9949
 31
0.0
  0
LINE
  8
0
 62
     0
 10
123.869
 20
51.9949
 30
0.0
 11
110.02
 21
51.9949
 31
0.0
  0
LINE
  8
0
 62
     0
 10
110.02
 20
51.9949
 30
0.0
 11
110.02
 21
65.8442
 31
0.0
  0
LINE
  8
0
 62
     0
 10
90.9697
 20
65.8442
 30
0.0
 11
104.819
 21
65.8442
 31
0.0
  0
LINE
  8
0
 62
     0
 10
104.819
 20
65.8442
 30
0.0
 11
104.819
 21
51.9949
 31
0.0
  0
LINE
  8
0
 62
     0
 10
104.819
 20
51.9949
 30
0.0
 11
90.9697
 21
51.9949
 31
0.0
  0
LINE
  8
0
 62
     0
 10
90.9697
 20
51.9949
 30
0.0
 11
90.9697
 21
65.8442
 31
0.0
  0
LINE
  8
0
 62
     0
 10
71.9197
 20
65.8442
 30
0.0
 11
85.7691
 21
65.8442
 31
0.0
  0
LINE
  8
0
 62
     0
 10
85.7691
 20
65.8442
 30
0.0
 11
85.7691
 21
51.9949
 31
0.0
  0
LINE
  8
0
 62
     0
 10
85.7691
 20
51.9949
 30
0.0
 11
71.9197
 21
51.9949
 31
0.0
  0
LINE
  8
0
 62
     0
 10
71.9197
 20
51.9949
 30
0.0
 11
71.9197
 21
65.8442
 31
0.0
  0
LINE
  8
0
 62
     0
 10
52.8697
 20
65.8442
 30
0.0
 11
66.7191
 21
65.8442
 31
0.0
  0
LINE
  8
0
 62
     0
 10
66.7191
 20
65.8442
 30
0.0
 11
66.7191
 21
51.9949
 31
0.0
  0
LINE
  8
0
 62
     0
 10
66.7191
 20
51.9949
 30
0.0
 11
52.8697
 21
51.9949
 31
0.0
  0
LINE
  8
0
 62
     0
 10
52.8697
 20
51.9949
 30
0.0
 11
52.8697
 21
65.8442
 31
0.0
  0
LINE
  8
0
 62
     0
 10
33.8198
 20
65.8442
 30
0.0
 11
47.6691
 21
65.8442
 31
0.0
  0
LINE
  8
0
 62
     0
 10
47.6691
 20
65.8442
 30
0.0
 11
47.6691
 21
51.9949
 31
0.0
  0
LINE
  8
0
 62
     0
 10
47.6691
 20
51.9949
 30
0.0
 11
33.8198
 21
51.9949
 31
0.0
  0
LINE
  8
0
 62
     0
 10
33.8198
 20
51.9949
 30
0.0
 11
33.8198
 21
65.8442
 31
0.0
  0
LINE
  8
0
 62
     0
 10
14.7698
 20
65.8442
 30
0.0
 11
28.6191
 21
65.8442
 31
0.0
  0
LINE
  8
0
 62
     0
 10
28.6191
 20
65.8442
 30
0.0
 11
28.6191
 21
51.9949
 31
0.0
  0
LINE
  8
0
 62
     0
 10
28.6191
 20
51.9949
 30
0.0
 11
14.7698
 21
51.9949
 31
0.0
  0
LINE
  8
0
 62
     0
 10
14.7698
 20
51.9949
 30
0.0
 11
14.7698
 21
65.8442
 31
0.0
  0
LINE
  8
0
 62
     0
 10
243.37
 20
84.8942
 30
0.0
 11
257.219
 21
84.8942
 31
0.0
  0
LINE
  8
0
 62
     0
 10
257.219
 20
84.8942
 30
0.0
 11
257.219
 21
71.0449
 31
0.0
  0
LINE
  8
0
 62
     0
 10
257.219
 20
71.0449
 30
0.0
 11
243.37
 21
71.0449
 31
0.0
  0
LINE
  8
0
 62
     0
 10
243.37
 20
71.0449
 30
0.0
 11
243.37
 21
84.8942
 31
0.0
  0
LINE
  8
0
 62
     0
 10
224.32
 20
84.8942
 30
0.0
 11
238.169
 21
84.8942
 31
0.0
  0
LINE
  8
0
 62
     0
 10
238.169
 20
84.8942
 30
0.0
 11
238.169
 21
71.0449
 31
0.0
  0
LINE
  8
0
 62
     0
 10
238.169
 20
71.0449
 30
0.0
 11
224.32
 21
71.0449
 31
0.0
  0
LINE
  8
0
 62
     0
 10
224.32
 20
71.0449
 30
0.0
 11
224.32
 21
84.8942
 31
0.0
  0
LINE
  8
0
 62
     0
 10
205.27
 20
84.8942
 30
0.0
 11
219.119
 21
84.8942
 31
0.0
  0
LINE
  8
0
 62
     0
 10
219.119
 20
84.8942
 30
0.0
 11
219.119
 21
71.0449
 31
0.0
  0
LINE
  8
0
 62
     0
 10
219.119
 20
71.0449
 30
0.0
 11
205.27
 21
71.0449
 31
0.0
  0
LINE
  8
0
 62
     0
 10
205.27
 20
71.0449
 30
0.0
 11
205.27
 21
84.8942
 31
0.0
  0
LINE
  8
0
 62
     0
 10
186.22
 20
84.8942
 30
0.0
 11
200.069
 21
84.8942
 31
0.0
  0
LINE
  8
0
 62
     0
 10
200.069
 20
84.8942
 30
0.0
 11
200.069
 21
71.0449
 31
0.0
  0
LINE
  8
0
 62
     0
 10
200.069
 20
71.0449
 30
0.0
 11
186.22
 21
71.0449
 31
0.0
  0
LINE
  8
0
 62
     0
 10
186.22
 20
71.0449
 30
0.0
 11
186.22
 21
84.8942
 31
0.0
  0
LINE
  8
0
 62
     0
 10
167.17
 20
84.8942
 30
0.0
 11
181.019
 21
84.8942
 31
0.0
  0
LINE
  8
0
 62
     0
 10
181.019
 20
84.8942
 30
0.0
 11
181.019
 21
71.0449
 31
0.0
  0
LINE
  8
0
 62
     0
 10
181.019
 20
71.0449
 30
0.0
 11
167.17
 21
71.0449
 31
0.0
  0
LINE
  8
0
 62
     0
 10
167.17
 20
71.0449
 30
0.0
 11
167.17
 21
84.8942
 31
0.0
  0
LINE
  8
0
 62
     0
 10
148.12
 20
84.8942
 30
0.0
 11
161.969
 21
84.8942
 31
0.0
  0
LINE
  8
0
 62
     0
 10
161.969
 20
84.8942
 30
0.0
 11
161.969
 21
71.0449
 31
0.0
  0
LINE
  8
0
 62
     0
 10
161.969
 20
71.0449
 30
0.0
 11
148.12
 21
71.0449
 31
0.0
  0
LINE
  8
0
 62
     0
 10
148.12
 20
71.0449
 30
0.0
 11
148.12
 21
84.8942
 31
0.0
  0
LINE
  8
0
 62
     0
 10
129.07
 20
84.8942
 30
0.0
 11
142.919
 21
84.8942
 31
0.0
  0
LINE
  8
0
 62
     0
 10
142.919
 20
84.8942
 30
0.0
 11
142.919
 21
71.0449
 31
0.0
  0
LINE
  8
0
 62
     0
 10
142.919
 20
71.0449
 30
0.0
 11
129.07
 21
71.0449
 31
0.0
  0
LINE
  8
0
 62
     0
 10
129.07
 20
71.0449
 30
0.0
 11
129.07
 21
84.8942
 31
0.0
  0
LINE
  8
0
 62
     0
 10
110.02
 20
84.8942
 30
0.0
 11
123.869
 21
84.8942
 31
0.0
  0
LINE
  8
0
 62
     0
 10
123.869
 20
84.8942
 30
0.0
 11
123.869
 21
71.0449
 31
0.0
  0
LINE
  8
0
 62
     0
 10
123.869
 20
71.0449
 30
0.0
 11
110.02
 21
71.0449
 31
0.0
  0
LINE
  8
0
 62
     0
 10
110.02
 20
71.0449
 30
0.0
 11
110.02
 21
84.8942
 31
0.0
  0
LINE
  8
0
 62
     0
 10
90.9697
 20
84.8942
 30
0.0
 11
104.819
 21
84.8942
 31
0.0
  0
LINE
  8
0
 62
     0
 10
104.819
 20
84.8942
 30
0.0
 11
104.819
 21
71.0449
 31
0.0
  0
LINE
  8
0
 62
     0
 10
104.819
 20
71.0449
 30
0.0
 11
90.9697
 21
71.0449
 31
0.0
  0
LINE
  8
0
 62
     0
 10
90.9697
 20
71.0449
 30
0.0
 11
90.9697
 21
84.8942
 31
0.0
  0
LINE
  8
0
 62
     0
 10
71.9197
 20
84.8942
 30
0.0
 11
85.7691
 21
84.8942
 31
0.0
  0
LINE
  8
0
 62
     0
 10
85.7691
 20
84.8942
 30
0.0
 11
85.7691
 21
71.0449
 31
0.0
  0
LINE
  8
0
 62
     0
 10
85.7691
 20
71.0449
 30
0.0
 11
71.9197
 21
71.0449
 31
0.0
  0
LINE
  8
0
 62
     0
 10
71.9197
 20
71.0449
 30
0.0
 11
71.9197
 21
84.8942
 31
0.0
  0
LINE
  8
0
 62
     0
 10
52.8697
 20
84.8942
 30
0.0
 11
66.7191
 21
84.8942
 31
0.0
  0
LINE
  8
0
 62
     0
 10
66.7191
 20
84.8942
 30
0.0
 11
66.7191
 21
71.0449
 31
0.0
  0
LINE
  8
0
 62
     0
 10
66.7191
 20
71.0449
 30
0.0
 11
52.8697
 21
71.0449
 31
0.0
  0
LINE
  8
0
 62
     0
 10
52.8697
 20
71.0449
 30
0.0
 11
52.8697
 21
84.8942
 31
0.0
  0
LINE
  8
0
 62
     0
 10
33.8198
 20
84.8942
 30
0.0
 11
47.6691
 21
84.8942
 31
0.0
  0
LINE
  8
0
 62
     0
 10
47.6691
 20
84.8942
 30
0.0
 11
47.6691
 21
71.0449
 31
0.0
  0
LINE
  8
0
 62
     0
 10
47.6691
 20
71.0449
 30
0.0
 11
33.8198
 21
71.0449
 31
0.0
  0
LINE
  8
0
 62
     0
 10
33.8198
 20
71.0449
 30
0.0
 11
33.8198
 21
84.8942
 31
0.0
  0
LINE
  8
0
 62
     0
 10
14.7698
 20
84.8942
 30
0.0
 11
28.6191
 21
84.8942
 31
0.0
  0
LINE
  8
0
 62
     0
 10
28.6191
 20
84.8942
 30
0.0
 11
28.6191
 21
71.0449
 31
0.0
  0
LINE
  8
0
 62
     0
 10
28.6191
 20
71.0449
 30
0.0
 11
14.7698
 21
71.0449
 31
0.0
  0
LINE
  8
0
 62
     0
 10
14.7698
 20
71.0449
 30
0.0
 11
14.7698
 21
84.8942
 31
0.0
  0
LINE
  8
0
 62
     0
 10
243.37
 20
103.944
 30
0.0
 11
257.219
 21
103.944
 31
0.0
  0
LINE
  8
0
 62
     0
 10
257.219
 20
103.944
 30
0.0
 11
257.219
 21
90.0949
 31
0.0
  0
LINE
  8
0
 62
     0
 10
257.219
 20
90.0949
 30
0.0
 11
243.37
 21
90.0949
 31
0.0
  0
LINE
  8
0
 62
     0
 10
243.37
 20
90.0949
 30
0.0
 11
243.37
 21
103.944
 31
0.0
  0
LINE
  8
0
 62
     0
 10
224.32
 20
103.944
 30
0.0
 11
238.169
 21
103.944
 31
0.0
  0
LINE
  8
0
 62
     0
 10
238.169
 20
103.944
 30
0.0
 11
238.169
 21
90.0949
 31
0.0
  0
LINE
  8
0
 62
     0
 10
238.169
 20
90.0949
 30
0.0
 11
224.32
 21
90.0949
 31
0.0
  0
LINE
  8
0
 62
     0
 10
224.32
 20
90.0949
 30
0.0
 11
224.32
 21
103.944
 31
0.0
  0
LINE
  8
0
 62
     0
 10
205.27
 20
103.944
 30
0.0
 11
219.119
 21
103.944
 31
0.0
  0
LINE
  8
0
 62
     0
 10
219.119
 20
103.944
 30
0.0
 11
219.119
 21
90.0949
 31
0.0
  0
LINE
  8
0
 62
     0
 10
219.119
 20
90.0949
 30
0.0
 11
205.27
 21
90.0949
 31
0.0
  0
LINE
  8
0
 62
     0
 10
205.27
 20
90.0949
 30
0.0
 11
205.27
 21
103.944
 31
0.0
  0
LINE
  8
0
 62
     0
 10
186.22
 20
103.944
 30
0.0
 11
200.069
 21
103.944
 31
0.0
  0
LINE
  8
0
 62
     0
 10
200.069
 20
103.944
 30
0.0
 11
200.069
 21
90.0949
 31
0.0
  0
LINE
  8
0
 62
     0
 10
200.069
 20
90.0949
 30
0.0
 11
186.22
 21
90.0949
 31
0.0
  0
LINE
  8
0
 62
     0
 10
186.22
 20
90.0949
 30
0.0
 11
186.22
 21
103.944
 31
0.0
  0
LINE
  8
0
 62
     0
 10
167.17
 20
103.944
 30
0.0
 11
181.019
 21
103.944
 31
0.0
  0
LINE
  8
0
 62
     0
 10
181.019
 20
103.944
 30
0.0
 11
181.019
 21
90.0949
 31
0.0
  0
LINE
  8
0
 62
     0
 10
181.019
 20
90.0949
 30
0.0
 11
167.17
 21
90.0949
 31
0.0
  0
LINE
  8
0
 62
     0
 10
167.17
 20
90.0949
 30
0.0
 11
167.17
 21
103.944
 31
0.0
  0
LINE
  8
0
 62
     0
 10
148.12
 20
103.944
 30
0.0
 11
161.969
 21
103.944
 31
0.0
  0
LINE
  8
0
 62
     0
 10
161.969
 20
103.944
 30
0.0
 11
161.969
 21
90.0949
 31
0.0
  0
LINE
  8
0
 62
     0
 10
161.969
 20
90.0949
 30
0.0
 11
148.12
 21
90.0949
 31
0.0
  0
LINE
  8
0
 62
     0
 10
148.12
 20
90.0949
 30
0.0
 11
148.12
 21
103.944
 31
0.0
  0
LINE
  8
0
 62
     0
 10
129.07
 20
103.944
 30
0.0
 11
142.919
 21
103.944
 31
0.0
  0
LINE
  8
0
 62
     0
 10
142.919
 20
103.944
 30
0.0
 11
142.919
 21
90.0949
 31
0.0
  0
LINE
  8
0
 62
     0
 10
142.919
 20
90.0949
 30
0.0
 11
129.07
 21
90.0949
 31
0.0
  0
LINE
  8
0
 62
     0
 10
129.07
 20
90.0949
 30
0.0
 11
129.07
 21
103.944
 31
0.0
  0
LINE
  8
0
 62
     0
 10
110.02
 20
103.944
 30
0.0
 11
123.869
 21
103.944
 31
0.0
  0
LINE
  8
0
 62
     0
 10
123.869
 20
103.944
 30
0.0
 11
123.869
 21
90.0949
 31
0.0
  0
LINE
  8
0
 62
     0
 10
123.869
 20
90.0949
 30
0.0
 11
110.02
 21
90.0949
 31
0.0
  0
LINE
  8
0
 62
     0
 10
110.02
 20
90.0949
 30
0.0
 11
110.02
 21
103.944
 31
0.0
  0
LINE
  8
0
 62
     0
 10
90.9697
 20
103.944
 30
0.0
 11
104.819
 21
103.944
 31
0.0
  0
LINE
  8
0
 62
     0
 10
104.819
 20
103.944
 30
0.0
 11
104.819
 21
90.0949
 31
0.0
  0
LINE
  8
0
 62
     0
 10
104.819
 20
90.0949
 30
0.0
 11
90.9697
 21
90.0949
 31
0.0
  0
LINE
  8
0
 62
     0
 10
90.9697
 20
90.0949
 30
0.0
 11
90.9697
 21
103.944
 31
0.0
  0
LINE
  8
0
 62
     0
 10
71.9197
 20
103.944
 30
0.0
 11
85.7691
 21
103.944
 31
0.0
  0
LINE
  8
0
 62
     0
 10
85.7691
 20
103.944
 30
0.0
 11
85.7691
 21
90.0949
 31
0.0
  0
LINE
  8
0
 62
     0
 10
85.7691
 20
90.0949
 30
0.0
 11
71.9197
 21
90.0949
 31
0.0
  0
LINE
  8
0
 62
     0
 10
71.9197
 20
90.0949
 30
0.0
 11
71.9197
 21
103.944
 31
0.0
  0
LINE
  8
0
 62
     0
 10
52.8697
 20
103.944
 30
0.0
 11
66.7191
 21
103.944
 31
0.0
  0
LINE
  8
0
 62
     0
 10
66.7191
 20
103.944
 30
0.0
 11
66.7191
 21
90.0949
 31
0.0
  0
LINE
  8
0
 62
     0
 10
66.7191
 20
90.0949
 30
0.0
 11
52.8697
 21
90.0949
 31
0.0
  0
LINE
  8
0
 62
     0
 10
52.8697
 20
90.0949
 30
0.0
 11
52.8697
 21
103.944
 31
0.0
  0
LINE
  8
0
 62
     0
 10
33.8198
 20
103.944
 30
0.0
 11
47.6691
 21
103.944
 31
0.0
  0
LINE
  8
0
 62
     0
 10
47.6691
 20
103.944
 30
0.0
 11
47.6691
 21
90.0949
 31
0.0
  0
LINE
  8
0
 62
     0
 10
47.6691
 20
90.0949
 30
0.0
 11
33.8198
 21
90.0949
 31
0.0
  0
LINE
  8
0
 62
     0
 10
33.8198
 20
90.0949
 30
0.0
 11
33.8198
 21
103.944
 31
0.0
  0
LINE
  8
0
 62
     0
 10
14.7698
 20
103.944
 30
0.0
 11
28.6191
 21
103.944
 31
0.0
  0
LINE
  8
0
 62
     0
 10
28.6191
 20
103.944
 30
0.0
 11
28.6191
 21
90.0949
 31
0.0
  0
LINE
  8
0
 62
     0
 10
28.6191
 20
90.0949
 30
0.0
 11
14.7698
 21
90.0949
 31
0.0
  0
LINE
  8
0
 62
     0
 10
14.7698
 20
90.0949
 30
0.0
 11
14.7698
 21
103.944
 31
0.0
  0
ENDSEC
  0
EOF
