<?xml version="1.0"?>
<!-- Generated by SVGo -->
<svg width="281.801mm" height="119.401mm"
     viewBox="0.000 0.000 281.801 119.401"
     xmlns="http://www.w3.org/2000/svg" 
     xmlns:xlink="http://www.w3.org/1999/xlink">
<polygon points="276.801,114.401 5.000,114.401 5.000,5.000 276.801,5.000" style="fill:none;stroke-width:0.050000mm;stroke:black"/>
<polygon points="248.275,86.875 248.275,100.725 262.125,100.725 262.125,86.875" style="fill:none;stroke-width:0.050000mm;stroke:black"/>
<polygon points="229.225,86.875 229.225,100.725 243.075,100.725 243.075,86.875" style="fill:none;stroke-width:0.050000mm;stroke:black"/>
<polygon points="210.175,86.875 210.175,100.725 224.025,100.725 224.025,86.875" style="fill:none;stroke-width:0.050000mm;stroke:black"/>
<polygon points="191.125,86.875 191.125,100.725 204.975,100.725 204.975,86.875" style="fill:none;stroke-width:0.050000mm;stroke:black"/>
<polygon points="172.075,86.875 172.075,100.725 185.925,100.725 185.925,86.875" style="fill:none;stroke-width:0.050000mm;stroke:black"/>
<polygon points="153.025,86.875 153.025,100.725 166.875,100.725 166.875,86.875" style="fill:none;stroke-width:0.050000mm;stroke:black"/>
<polygon points="133.975,86.875 133.975,100.725 147.825,100.725 147.825,86.875" style="fill:none;stroke-width:0.050000mm;stroke:black"/>
<polygon points="114.925,86.875 114.925,100.725 128.775,100.725 128.775,86.875" style="fill:none;stroke-width:0.050000mm;stroke:black"/>
<polygon points="95.875,86.875 95.875,100.725 109.725,100.725 109.725,86.875" style="fill:none;stroke-width:0.050000mm;stroke:black"/>
<polygon points="76.825,86.875 76.825,100.725 90.675,100.725 90.675,86.875" style="fill:none;stroke-width:0.050000mm;stroke:black"/>
<polygon points="57.775,86.875 57.775,100.725 71.625,100.725 71.625,86.875" style="fill:none;stroke-width:0.050000mm;stroke:black"/>
<polygon points="38.725,86.875 38.725,100.725 52.575,100.725 52.575,86.875" style="fill:none;stroke-width:0.050000mm;stroke:black"/>
<polygon points="19.675,86.875 19.675,100.725 33.525,100.725 33.525,86.875" style="fill:none;stroke-width:0.050000mm;stroke:black"/>
<polygon points="248.275,67.825 248.275,81.675 262.125,81.675 262.125,67.825" style="fill:none;stroke-width:0.050000mm;stroke:black"/>
<polygon points="229.225,67.825 229.225,81.675 243.075,81.675 243.075,67.825" style="fill:none;stroke-width:0.050000mm;stroke:black"/>
<polygon points="210.175,67.825 210.175,81.675 224.025,81.675 224.025,67.825" style="fill:none;stroke-width:0.050000mm;stroke:black"/>
<polygon points="191.125,67.825 191.125,81.675 204.975,81.675 204.975,67.825" style="fill:none;stroke-width:0.050000mm;stroke:black"/>
<polygon points="172.075,67.825 172.075,81.675 185.925,81.675 185.925,67.825" style="fill:none;stroke-width:0.050000mm;stroke:black"/>
<polygon points="153.025,67.825 153.025,81.675 166.875,81.675 166.875,67.825" style="fill:none;stroke-width:0.050000mm;stroke:black"/>
<polygon points="133.975,67.825 133.975,81.675 147.825,81.675 147.825,67.825" style="fill:none;stroke-width:0.050000mm;stroke:black"/>
<polygon points="114.925,67.825 114.925,81.675 128.775,81.675 128.775,67.825" style="fill:none;stroke-width:0.050000mm;stroke:black"/>
<polygon points="95.875,67.825 95.875,81.675 109.725,81.675 109.725,67.825" style="fill:none;stroke-width:0.050000mm;stroke:black"/>
<polygon points="76.825,67.825 76.825,81.675 90.675,81.675 90.675,67.825" style="fill:none;stroke-width:0.050000mm;stroke:black"/>
<polygon points="57.775,67.825 57.775,81.675 71.625,81.675 71.625,67.825" style="fill:none;stroke-width:0.050000mm;stroke:black"/>
<polygon points="38.725,67.825 38.725,81.675 52.575,81.675 52.575,67.825" style="fill:none;stroke-width:0.050000mm;stroke:black"/>
<polygon points="19.675,67.825 19.675,81.675 33.525,81.675 33.525,67.825" style="fill:none;stroke-width:0.050000mm;stroke:black"/>
<polygon points="248.275,48.775 248.275,62.625 262.125,62.625 262.125,48.775" style="fill:none;stroke-width:0.050000mm;stroke:black"/>
<polygon points="229.225,48.775 229.225,62.625 243.075,62.625 243.075,48.775" style="fill:none;stroke-width:0.050000mm;stroke:black"/>
<polygon points="210.175,48.775 210.175,62.625 224.025,62.625 224.025,48.775" style="fill:none;stroke-width:0.050000mm;stroke:black"/>
<polygon points="191.125,48.775 191.125,62.625 204.975,62.625 204.975,48.775" style="fill:none;stroke-width:0.050000mm;stroke:black"/>
<polygon points="172.075,48.775 172.075,62.625 185.925,62.625 185.925,48.775" style="fill:none;stroke-width:0.050000mm;stroke:black"/>
<polygon points="153.025,48.775 153.025,62.625 166.875,62.625 166.875,48.775" style="fill:none;stroke-width:0.050000mm;stroke:black"/>
<polygon points="133.975,48.775 133.975,62.625 147.825,62.625 147.825,48.775" style="fill:none;stroke-width:0.050000mm;stroke:black"/>
<polygon points="114.925,48.775 114.925,62.625 128.775,62.625 128.775,48.775" style="fill:none;stroke-width:0.050000mm;stroke:black"/>
<polygon points="95.875,48.775 95.875,62.625 109.725,62.625 109.725,48.775" style="fill:none;stroke-width:0.050000mm;stroke:black"/>
<polygon points="76.825,48.775 76.825,62.625 90.675,62.625 90.675,48.775" style="fill:none;stroke-width:0.050000mm;stroke:black"/>
<polygon points="57.775,48.775 57.775,62.625 71.625,62.625 71.625,48.775" style="fill:none;stroke-width:0.050000mm;stroke:black"/>
<polygon points="38.725,48.775 38.725,62.625 52.575,62.625 52.575,48.775" style="fill:none;stroke-width:0.050000mm;stroke:black"/>
<polygon points="19.675,48.775 19.675,62.625 33.525,62.625 33.525,48.775" style="fill:none;stroke-width:0.050000mm;stroke:black"/>
<polygon points="248.275,29.725 248.275,43.575 262.125,43.575 262.125,29.725" style="fill:none;stroke-width:0.050000mm;stroke:black"/>
<polygon points="229.225,29.725 229.225,43.575 243.075,43.575 243.075,29.725" style="fill:none;stroke-width:0.050000mm;stroke:black"/>
<polygon points="210.175,29.725 210.175,43.575 224.025,43.575 224.025,29.725" style="fill:none;stroke-width:0.050000mm;stroke:black"/>
<polygon points="191.125,29.725 191.125,43.575 204.975,43.575 204.975,29.725" style="fill:none;stroke-width:0.050000mm;stroke:black"/>
<polygon points="172.075,29.725 172.075,43.575 185.925,43.575 185.925,29.725" style="fill:none;stroke-width:0.050000mm;stroke:black"/>
<polygon points="153.025,29.725 153.025,43.575 166.875,43.575 166.875,29.725" style="fill:none;stroke-width:0.050000mm;stroke:black"/>
<polygon points="133.975,29.725 133.975,43.575 147.825,43.575 147.825,29.725" style="fill:none;stroke-width:0.050000mm;stroke:black"/>
<polygon points="114.925,29.725 114.925,43.575 128.775,43.575 128.775,29.725" style="fill:none;stroke-width:0.050000mm;stroke:black"/>
<polygon points="95.875,29.725 95.875,43.575 109.725,43.575 109.725,29.725" style="fill:none;stroke-width:0.050000mm;stroke:black"/>
<polygon points="76.825,29.725 76.825,43.575 90.675,43.575 90.675,29.725" style="fill:none;stroke-width:0.050000mm;stroke:black"/>
<polygon points="57.775,29.725 57.775,43.575 71.625,43.575 71.625,29.725" style="fill:none;stroke-width:0.050000mm;stroke:black"/>
<polygon points="38.725,29.725 38.725,43.575 52.575,43.575 52.575,29.725" style="fill:none;stroke-width:0.050000mm;stroke:black"/>
<polygon points="19.675,29.725 19.675,43.575 33.525,43.575 33.525,29.725" style="fill:none;stroke-width:0.050000mm;stroke:black"/>
<polygon points="248.275,10.675 248.275,24.525 262.125,24.525 262.125,10.675" style="fill:none;stroke-width:0.050000mm;stroke:black"/>
<polygon points="229.225,10.675 229.225,24.525 243.075,24.525 243.075,10.675" style="fill:none;stroke-width:0.050000mm;stroke:black"/>
<polygon points="210.175,10.675 210.175,24.525 224.025,24.525 224.025,10.675" style="fill:none;stroke-width:0.050000mm;stroke:black"/>
<polygon points="191.125,10.675 191.125,24.525 204.975,24.525 204.975,10.675" style="fill:none;stroke-width:0.050000mm;stroke:black"/>
<polygon points="172.075,10.675 172.075,24.525 185.925,24.525 185.925,10.675" style="fill:none;stroke-width:0.050000mm;stroke:black"/>
<polygon points="153.025,10.675 153.025,24.525 166.875,24.525 166.875,10.675" style="fill:none;stroke-width:0.050000mm;stroke:black"/>
<polygon points="133.975,10.675 133.975,24.525 147.825,24.525 147.825,10.675" style="fill:none;stroke-width:0.050000mm;stroke:black"/>
<polygon points="114.925,10.675 114.925,24.525 128.775,24.525 128.775,10.675" style="fill:none;stroke-width:0.050000mm;stroke:black"/>
<polygon points="95.875,10.675 95.875,24.525 109.725,24.525 109.725,10.675" style="fill:none;stroke-width:0.050000mm;stroke:black"/>
<polygon points="76.825,10.675 76.825,24.525 90.675,24.525 90.675,10.675" style="fill:none;stroke-width:0.050000mm;stroke:black"/>
<polygon points="57.775,10.675 57.775,24.525 71.625,24.525 71.625,10.675" style="fill:none;stroke-width:0.050000mm;stroke:black"/>
<polygon points="38.725,10.675 38.725,24.525 52.575,24.525 52.575,10.675" style="fill:none;stroke-width:0.050000mm;stroke:black"/>
<polygon points="19.675,10.675 19.675,24.525 33.525,24.525 33.525,10.675" style="fill:none;stroke-width:0.050000mm;stroke:black"/>
</svg>
